<svg id="visual" viewBox="0 0 3840 2000" width="3840" height="2000" xmlns="http://www.w3.org/2000/svg" xmlns:xlink="http://www.w3.org/1999/xlink" version="1.1"><rect x="0" y="0" width="3840" height="2000" fill="#222e50"></rect><path d="M0 664L71.2 664.3C142.3 664.7 284.7 665.3 426.8 643.7C569 622 711 578 853.2 548.2C995.3 518.3 1137.7 502.7 1280 515.7C1422.3 528.7 1564.7 570.3 1706.8 554.8C1849 539.3 1991 466.7 2133.2 456.8C2275.3 447 2417.7 500 2560 481.5C2702.3 463 2844.7 373 2986.8 391C3129 409 3271 535 3413.2 591.3C3555.3 647.7 3697.7 634.3 3768.8 627.7L3840 621L3840 2001L3768.8 2001C3697.7 2001 3555.3 2001 3413.2 2001C3271 2001 3129 2001 2986.8 2001C2844.7 2001 2702.3 2001 2560 2001C2417.7 2001 2275.3 2001 2133.2 2001C1991 2001 1849 2001 1706.8 2001C1564.7 2001 1422.3 2001 1280 2001C1137.7 2001 995.3 2001 853.2 2001C711 2001 569 2001 426.8 2001C284.7 2001 142.3 2001 71.2 2001L0 2001Z" fill="#222e50"></path><path d="M0 939L71.2 907.3C142.3 875.7 284.7 812.3 426.8 817.5C569 822.7 711 896.3 853.2 867.3C995.3 838.3 1137.7 706.7 1280 650.5C1422.3 594.3 1564.7 613.7 1706.8 680.3C1849 747 1991 861 2133.2 902.7C2275.3 944.3 2417.7 913.7 2560 864.2C2702.3 814.7 2844.7 746.3 2986.8 742.5C3129 738.7 3271 799.3 3413.2 779.7C3555.3 760 3697.7 660 3768.8 610L3840 560L3840 2001L3768.8 2001C3697.7 2001 3555.3 2001 3413.2 2001C3271 2001 3129 2001 2986.8 2001C2844.7 2001 2702.3 2001 2560 2001C2417.7 2001 2275.3 2001 2133.2 2001C1991 2001 1849 2001 1706.8 2001C1564.7 2001 1422.3 2001 1280 2001C1137.7 2001 995.3 2001 853.2 2001C711 2001 569 2001 426.8 2001C284.7 2001 142.3 2001 71.2 2001L0 2001Z" fill="#1e4064"></path><path d="M0 1171L71.2 1140.5C142.3 1110 284.7 1049 426.8 1052.3C569 1055.7 711 1123.3 853.2 1107.5C995.3 1091.7 1137.7 992.3 1280 995.2C1422.3 998 1564.7 1103 1706.8 1131C1849 1159 1991 1110 2133.2 1077.3C2275.3 1044.7 2417.7 1028.3 2560 1034.8C2702.3 1041.3 2844.7 1070.7 2986.8 1108.7C3129 1146.7 3271 1193.3 3413.2 1173.7C3555.3 1154 3697.7 1068 3768.8 1025L3840 982L3840 2001L3768.8 2001C3697.7 2001 3555.3 2001 3413.2 2001C3271 2001 3129 2001 2986.8 2001C2844.7 2001 2702.3 2001 2560 2001C2417.7 2001 2275.3 2001 2133.2 2001C1991 2001 1849 2001 1706.8 2001C1564.7 2001 1422.3 2001 1280 2001C1137.7 2001 995.3 2001 853.2 2001C711 2001 569 2001 426.8 2001C284.7 2001 142.3 2001 71.2 2001L0 2001Z" fill="#155375"></path><path d="M0 1409L71.2 1393.8C142.3 1378.7 284.7 1348.3 426.8 1312.3C569 1276.3 711 1234.7 853.2 1230.3C995.3 1226 1137.7 1259 1280 1271.8C1422.3 1284.7 1564.7 1277.3 1706.8 1293.7C1849 1310 1991 1350 2133.2 1374.7C2275.3 1399.3 2417.7 1408.7 2560 1421.3C2702.3 1434 2844.7 1450 2986.8 1453.7C3129 1457.3 3271 1448.7 3413.2 1414.2C3555.3 1379.7 3697.7 1319.3 3768.8 1289.2L3840 1259L3840 2001L3768.8 2001C3697.7 2001 3555.3 2001 3413.2 2001C3271 2001 3129 2001 2986.8 2001C2844.7 2001 2702.3 2001 2560 2001C2417.7 2001 2275.3 2001 2133.2 2001C1991 2001 1849 2001 1706.8 2001C1564.7 2001 1422.3 2001 1280 2001C1137.7 2001 995.3 2001 853.2 2001C711 2001 569 2001 426.8 2001C284.7 2001 142.3 2001 71.2 2001L0 2001Z" fill="#076684"></path><path d="M0 1623L71.2 1631.3C142.3 1639.7 284.7 1656.3 426.8 1686.2C569 1716 711 1759 853.2 1746.5C995.3 1734 1137.7 1666 1280 1617.3C1422.3 1568.7 1564.7 1539.3 1706.8 1529.8C1849 1520.3 1991 1530.7 2133.2 1583C2275.3 1635.3 2417.7 1729.7 2560 1748.7C2702.3 1767.7 2844.7 1711.3 2986.8 1676.3C3129 1641.3 3271 1627.7 3413.2 1632.3C3555.3 1637 3697.7 1660 3768.8 1671.5L3840 1683L3840 2001L3768.8 2001C3697.7 2001 3555.3 2001 3413.2 2001C3271 2001 3129 2001 2986.8 2001C2844.7 2001 2702.3 2001 2560 2001C2417.7 2001 2275.3 2001 2133.2 2001C1991 2001 1849 2001 1706.8 2001C1564.7 2001 1422.3 2001 1280 2001C1137.7 2001 995.3 2001 853.2 2001C711 2001 569 2001 426.8 2001C284.7 2001 142.3 2001 71.2 2001L0 2001Z" fill="#007991"></path></svg>