<svg id="visual" viewBox="0 0 900 600" width="900" height="600" xmlns="http://www.w3.org/2000/svg" xmlns:xlink="http://www.w3.org/1999/xlink" version="1.1"><rect x="0" y="0" width="900" height="600" fill="#cddddd"></rect><path d="M0 147L21.5 134C43 121 86 95 128.8 86C171.7 77 214.3 85 257.2 88.7C300 92.3 343 91.7 385.8 86.3C428.7 81 471.3 71 514.2 77C557 83 600 105 642.8 106.3C685.7 107.7 728.3 88.3 771.2 87.2C814 86 857 103 878.5 111.5L900 120L900 601L878.5 601C857 601 814 601 771.2 601C728.3 601 685.7 601 642.8 601C600 601 557 601 514.2 601C471.3 601 428.7 601 385.8 601C343 601 300 601 257.2 601C214.3 601 171.7 601 128.8 601C86 601 43 601 21.5 601L0 601Z" fill="#cddddd"></path><path d="M0 184L21.5 194.3C43 204.7 86 225.3 128.8 222C171.7 218.7 214.3 191.3 257.2 181.3C300 171.3 343 178.7 385.8 177.7C428.7 176.7 471.3 167.3 514.2 167.5C557 167.7 600 177.3 642.8 189.7C685.7 202 728.3 217 771.2 216.7C814 216.3 857 200.7 878.5 192.8L900 185L900 601L878.5 601C857 601 814 601 771.2 601C728.3 601 685.7 601 642.8 601C600 601 557 601 514.2 601C471.3 601 428.7 601 385.8 601C343 601 300 601 257.2 601C214.3 601 171.7 601 128.8 601C86 601 43 601 21.5 601L0 601Z" fill="#95b0b7"></path><path d="M0 326L21.5 324.2C43 322.3 86 318.7 128.8 313.8C171.7 309 214.3 303 257.2 306C300 309 343 321 385.8 313.8C428.7 306.7 471.3 280.3 514.2 274C557 267.7 600 281.3 642.8 289.8C685.7 298.3 728.3 301.7 771.2 309.8C814 318 857 331 878.5 337.5L900 344L900 601L878.5 601C857 601 814 601 771.2 601C728.3 601 685.7 601 642.8 601C600 601 557 601 514.2 601C471.3 601 428.7 601 385.8 601C343 601 300 601 257.2 601C214.3 601 171.7 601 128.8 601C86 601 43 601 21.5 601L0 601Z" fill="#648495"></path><path d="M0 408L21.5 398.8C43 389.7 86 371.3 128.8 377.8C171.7 384.3 214.3 415.7 257.2 430.2C300 444.7 343 442.3 385.8 428.3C428.7 414.3 471.3 388.7 514.2 378C557 367.3 600 371.7 642.8 371.3C685.7 371 728.3 366 771.2 372.2C814 378.3 857 395.7 878.5 404.3L900 413L900 601L878.5 601C857 601 814 601 771.2 601C728.3 601 685.7 601 642.8 601C600 601 557 601 514.2 601C471.3 601 428.7 601 385.8 601C343 601 300 601 257.2 601C214.3 601 171.7 601 128.8 601C86 601 43 601 21.5 601L0 601Z" fill="#3d5874"></path><path d="M0 530L21.5 518.2C43 506.3 86 482.7 128.8 470.2C171.7 457.7 214.3 456.3 257.2 468.8C300 481.3 343 507.7 385.8 514.3C428.7 521 471.3 508 514.2 502.7C557 497.3 600 499.7 642.8 506.5C685.7 513.3 728.3 524.7 771.2 531.7C814 538.7 857 541.3 878.5 542.7L900 544L900 601L878.5 601C857 601 814 601 771.2 601C728.3 601 685.7 601 642.8 601C600 601 557 601 514.2 601C471.3 601 428.7 601 385.8 601C343 601 300 601 257.2 601C214.3 601 171.7 601 128.8 601C86 601 43 601 21.5 601L0 601Z" fill="#222e50"></path></svg>