<?xml version="1.0" encoding="utf-8"?>
<svg height="24px" viewBox="0 -960 960 960" width="24px" fill="#000000" xmlns="http://www.w3.org/2000/svg">
  <defs/>
  <path d="M 142.274 -79.811 C 118.765 -79.811 98.641 -89.659 81.899 -109.355 C 65.158 -129.05 56.787 -152.728 56.787 -180.386 L 56.787 -783.834 C 56.787 -811.493 65.158 -835.17 81.899 -854.866 C 98.641 -874.562 118.765 -884.409 142.274 -884.409 L 826.167 -884.409 C 849.676 -884.409 869.801 -874.562 886.542 -854.866 C 903.284 -835.17 911.654 -811.493 911.654 -783.834 L 911.654 -180.386 C 911.654 -152.728 903.284 -129.05 886.542 -109.355 C 869.801 -89.659 849.676 -79.811 826.167 -79.811 L 142.274 -79.811 Z M 484.221 -431.823 L 142.274 -683.26 L 142.274 -180.386 L 826.167 -180.386 L 826.167 -683.26 L 484.221 -431.823 Z M 484.221 -532.397 L 826.167 -783.834 L 142.274 -783.834 L 484.221 -532.397 Z M 142.274 -683.26 L 142.274 -783.834 L 142.274 -180.386 L 142.274 -683.26 Z" style=""/>
</svg>