<svg width="1920" height="260" viewBox="0 0 1920 260" fill="none" xmlns="http://www.w3.org/2000/svg">
<path fill-rule="evenodd" clip-rule="evenodd" d="M0 0L35.2 5.45833C70.4 10.9167 142.4 21.8333 212.8 32.75C284.8 43.6667 355.2 54.5833 427.2 81.875C497.6 109.167 569.6 152.833 640 158.292C710.4 163.75 782.4 131 852.8 92.7917C924.8 54.5833 995.2 10.9167 1067.2 16.375C1137.6 21.8333 1209.6 76.4167 1280 81.875C1350.4 87.3333 1422.4 43.6667 1492.8 32.75C1564.8 21.8333 1635.2 43.6667 1707.2 49.125C1777.6 54.5833 1849.6 43.6667 1884.8 38.2083L1920 32.75V262H1884.8C1849.6 262 1777.6 262 1707.2 262C1635.2 262 1564.8 262 1492.8 262C1422.4 262 1350.4 262 1280 262C1209.6 262 1137.6 262 1067.2 262C995.2 262 924.8 262 852.8 262C782.4 262 710.4 262 640 262C569.6 262 497.6 262 427.2 262C355.2 262 284.8 262 212.8 262C142.4 262 70.4 262 35.2 262H0V0Z" fill="#007991"/>
</svg>
